<?xml version="1.0" standalone="no"?>
<!DOCTYPE svg PUBLIC "-//W3C//DTD SVG 20010904//EN"
 "http://www.w3.org/TR/2001/REC-SVG-20010904/DTD/svg10.dtd">
<svg version="1.0" xmlns="http://www.w3.org/2000/svg"
 width="532.000000pt" height="170.000000pt" viewBox="0 0 532.000000 170.000000"
 preserveAspectRatio="xMidYMid meet">

<g transform="translate(0.000000,170.000000) scale(0.100000,-0.100000)"
fill="#000000" stroke="none">
<path d="M857 1159 c-70 -17 -158 -71 -178 -112 -9 -19 -7 -18 13 4 54 61 133
96 243 109 69 7 70 7 15 8 -30 0 -72 -4 -93 -9z"/>
<path d="M1035 1150 c27 -12 43 -12 25 0 -8 5 -22 9 -30 9 -10 0 -8 -3 5 -9z"/>
<path d="M1086 1128 c3 -4 -16 -16 -42 -27 -75 -33 -169 -107 -203 -157 -17
-26 -31 -51 -31 -56 0 -27 -119 6 -140 39 -6 10 -9 12 -7 4 6 -26 53 -53 100
-58 36 -4 44 -9 40 -23 -3 -12 -18 -20 -45 -24 -123 -20 -221 -122 -222 -231
-1 -123 121 -184 275 -139 132 39 213 122 249 254 7 25 23 67 37 95 l26 50
-54 -50 c-30 -28 -65 -58 -79 -68 -25 -18 -25 -18 5 -1 17 9 42 28 58 42 42
40 33 17 -38 -89 -107 -160 -181 -224 -276 -236 -87 -12 -171 34 -183 100 -17
89 70 217 170 251 65 22 71 21 78 -18 9 -45 56 -86 99 -86 40 0 66 14 43 23
-9 4 -16 1 -16 -5 0 -17 -73 -1 -87 19 -24 31 -6 143 22 143 18 0 97 31 92 36
-2 3 -21 -3 -41 -11 -56 -24 -61 -15 -22 37 101 132 285 234 299 166 5 -20 5
-20 4 2 -2 24 -5 25 -59 25 -31 0 -54 -3 -52 -7z"/>
<path d="M2805 1116 c-187 -47 -326 -207 -285 -331 22 -66 105 -94 175 -59 17
8 21 11 10 8 -11 -4 -41 -9 -67 -11 -42 -5 -50 -2 -78 25 -57 57 -32 151 64
248 75 74 159 113 268 123 77 8 79 8 23 9 -33 0 -82 -5 -110 -12z"/>
<path d="M3021 1104 c64 -19 78 -38 45 -59 -34 -22 -118 -127 -201 -250 -84
-125 -107 -149 -169 -180 -60 -30 -118 -32 -169 -6 -24 12 -34 14 -27 6 19
-23 80 -38 132 -32 64 8 180 70 223 120 18 21 59 88 91 149 31 60 77 132 102
160 l46 50 18 -22 c34 -42 16 -129 -34 -164 -12 -9 -43 -16 -68 -17 -34 0 -40
-2 -25 -9 35 -15 89 -11 122 10 65 39 79 116 32 181 -25 35 -20 41 41 59 87
25 155 -3 165 -67 10 -63 14 -71 11 -19 -6 74 -38 101 -119 100 -39 0 -74 -6
-96 -18 -32 -17 -35 -17 -81 3 -27 12 -57 21 -67 20 -10 0 3 -7 28 -15z"/>
<path d="M1115 1013 l-40 -36 40 28 c51 36 49 34 44 39 -2 2 -22 -12 -44 -31z"/>
<path d="M1152 995 c0 -16 2 -22 5 -12 2 9 2 23 0 30 -3 6 -5 -1 -5 -18z"/>
<path d="M2760 999 c-44 -18 -100 -61 -120 -94 -21 -33 -27 -109 -11 -119 5
-4 7 3 4 14 -9 35 7 71 55 122 68 74 135 97 174 61 10 -9 18 -11 18 -5 0 28
-70 40 -120 21z"/>
<path d="M652 970 c0 -14 2 -19 5 -12 2 6 2 18 0 25 -3 6 -5 1 -5 -13z"/>
<path d="M1044 964 c-18 -14 -18 -15 4 -4 12 6 22 13 22 15 0 8 -5 6 -26 -11z"/>
<path d="M1199 958 c-9 -7 -31 -33 -49 -58 l-34 -45 43 40 c52 49 84 99 40 63z"/>
<path d="M980 930 c-9 -6 -10 -10 -3 -10 6 0 15 5 18 10 8 12 4 12 -15 0z"/>
<path d="M1243 893 c-17 -6 -16 -43 1 -43 18 0 39 27 31 40 -7 11 -13 11 -32
3z"/>
<path d="M2272 888 c-14 -14 -16 -38 -3 -38 23 0 41 14 41 31 0 21 -20 25 -38
7z"/>
<path d="M3162 888 c-14 -14 -16 -38 -3 -38 23 0 41 14 41 31 0 21 -20 25 -38
7z"/>
<path d="M4459 850 c-17 -30 -29 -40 -48 -41 -25 -1 -26 -1 -3 -7 23 -7 23 -8
-18 -67 -23 -33 -58 -78 -78 -100 l-37 -40 38 34 c37 35 37 35 37 10 0 -29 17
-49 40 -49 9 0 34 19 55 43 l40 42 -42 -39 c-26 -24 -47 -36 -57 -33 -20 8
-15 23 43 119 40 68 50 78 76 79 l30 1 -27 7 -28 6 20 30 c25 38 25 45 1 45
-13 0 -28 -15 -42 -40z"/>
<path d="M2799 809 c-37 -38 -58 -64 -47 -58 26 14 94 82 108 108 15 28 14 28
-61 -50z"/>
<path d="M866 810 c12 -4 31 -21 43 -36 11 -14 21 -21 21 -15 0 17 -50 61 -69
60 -11 0 -10 -3 5 -9z"/>
<path d="M1157 743 c-44 -78 -55 -117 -37 -138 14 -17 46 -20 54 -6 4 5 -3 7
-14 4 -34 -9 -24 31 30 118 28 44 50 82 50 85 0 2 -10 4 -22 4 -18 0 -32 -16
-61 -67z"/>
<path d="M1382 795 c-51 -22 -87 -51 -124 -98 -18 -23 -26 -37 -18 -30 13 9
15 6 16 -18 2 -66 50 -77 100 -23 32 34 34 34 34 12 0 -28 17 -48 40 -48 9 0
34 19 55 43 l40 42 -40 -37 c-23 -21 -46 -38 -53 -38 -27 0 -10 45 67 173 l23
37 -24 0 c-19 0 -32 -13 -60 -62 -40 -70 -111 -148 -134 -148 -8 0 -17 7 -20
15 -10 26 17 75 73 133 43 43 58 53 78 50 13 -3 22 -1 19 3 -8 13 -34 10 -72
-6z"/>
<path d="M1610 783 l-25 -28 26 23 c52 45 52 20 1 -68 -21 -36 -46 -77 -56
-92 -18 -28 -18 -28 6 -28 18 0 31 13 58 58 43 72 117 152 141 152 28 0 23
-18 -21 -85 -44 -66 -48 -85 -24 -109 22 -22 39 -20 71 10 l28 26 -29 -21
c-63 -46 -72 -20 -21 59 36 57 44 97 23 118 -20 20 -43 14 -79 -24 l-34 -35
-5 33 c-6 42 -29 46 -60 11z"/>
<path d="M1919 783 l-24 -28 26 23 c59 52 52 7 -16 -101 -51 -81 -53 -87 -31
-87 17 0 33 16 64 66 23 36 42 72 42 80 0 8 4 13 8 10 5 -3 22 9 38 27 l29 32
-32 -29 c-30 -27 -33 -28 -33 -10 0 22 -18 44 -35 44 -6 0 -22 -12 -36 -27z"/>
<path d="M2073 803 c25 -6 21 -22 -18 -83 -46 -74 -44 -131 5 -130 12 1 12 2
-2 11 -20 11 -16 25 24 88 42 68 35 125 -15 120 -7 -1 -4 -3 6 -6z"/>
<path d="M2193 746 c-50 -78 -60 -117 -38 -140 9 -9 24 -16 33 -16 15 1 15 2
-1 11 -23 14 -17 34 45 131 46 74 47 78 25 78 -18 0 -33 -15 -64 -64z"/>
<path d="M3082 742 c-51 -86 -59 -114 -37 -136 9 -9 24 -16 33 -16 15 1 15 2
-1 11 -23 14 -17 34 45 131 46 75 47 78 24 78 -19 0 -32 -14 -64 -68z"/>
<path d="M3291 788 c-67 -33 -111 -82 -111 -123 0 -40 29 -75 60 -75 32 0 71
24 115 71 l40 43 -52 -46 c-88 -81 -155 -78 -124 5 8 19 25 29 79 46 76 23 95
38 90 73 -4 31 -41 33 -97 6z m79 -1 c0 -28 -99 -92 -116 -75 -2 3 16 24 41
47 45 41 75 52 75 28z"/>
<path d="M3464 794 c-18 -14 -18 -15 4 -4 13 7 26 10 28 7 8 -8 -16 -58 -61
-128 -25 -38 -45 -72 -45 -74 0 -3 10 -5 23 -5 15 0 29 12 46 43 36 62 101
146 124 158 12 7 23 7 29 1 11 -11 -7 -51 -52 -117 -15 -22 -32 -50 -39 -62
-11 -21 -9 -23 11 -23 17 0 31 14 55 54 18 29 54 78 80 107 37 43 39 47 10 20
l-37 -35 0 26 c0 32 -23 52 -49 43 -11 -3 -34 -23 -51 -43 -17 -20 -28 -29
-24 -19 9 24 -4 67 -19 67 -7 0 -22 -7 -33 -16z"/>
<path d="M3735 796 c18 -13 17 -16 -23 -76 -44 -67 -48 -80 -32 -111 11 -20
45 -26 54 -10 4 5 -3 7 -14 4 -30 -8 -25 15 15 77 46 73 45 130 -4 130 -11 0
-10 -3 4 -14z"/>
<path d="M3909 781 c-75 -48 -99 -80 -94 -126 6 -63 51 -84 96 -44 l24 21 -25
-16 c-89 -57 -83 47 8 143 33 34 47 42 66 39 14 -3 23 -1 20 3 -10 17 -51 9
-95 -20z"/>
<path d="M4157 799 c13 -13 -4 -52 -63 -144 -40 -63 -40 -65 -14 -65 24 0 103
120 108 163 3 29 -12 57 -31 57 -8 0 -7 -4 0 -11z"/>
<path d="M4228 779 l-33 -31 33 26 c68 53 83 20 27 -58 -47 -66 -45 -126 4
-126 12 0 12 2 -2 13 -15 11 -13 18 25 80 35 58 40 72 32 95 -14 39 -46 39
-86 1z"/>
<path d="M4601 788 c-67 -33 -111 -82 -111 -123 0 -40 29 -75 60 -75 32 0 71
24 115 71 l40 43 -52 -46 c-88 -81 -155 -78 -124 5 8 19 25 29 79 46 76 23 95
38 90 73 -4 31 -41 33 -97 6z m79 -1 c0 -28 -99 -92 -116 -75 -2 3 16 24 41
47 45 41 75 52 75 28z"/>
<path d="M3414 738 l-29 -33 33 29 c30 28 37 36 29 36 -2 0 -16 -15 -33 -32z"/>
<path d="M3970 730 c-21 -21 -23 -29 -14 -54 6 -16 26 -23 22 -8 -1 4 6 21 15
39 9 18 17 34 17 38 0 12 -21 4 -40 -15z"/>
<path d="M4064 718 l-29 -33 33 29 c30 28 37 36 29 36 -2 0 -16 -15 -33 -32z"/>
<path d="M1864 718 l-19 -23 23 19 c21 18 27 26 19 26 -2 0 -12 -10 -23 -22z"/>
<path d="M1544 708 l-19 -23 23 19 c21 18 27 26 19 26 -2 0 -12 -10 -23 -22z"/>
<path d="M2492 698 c-6 -6 -12 -23 -11 -37 l1 -26 8 25 c4 14 8 19 9 13 1 -7
10 -13 22 -13 15 0 20 5 17 22 -3 26 -28 34 -46 16z"/>
<path d="M1829 673 c-13 -16 -12 -17 4 -4 16 13 21 21 13 21 -2 0 -10 -8 -17
-17z"/>
<path d="M3789 663 c-13 -16 -12 -17 4 -4 16 13 21 21 13 21 -2 0 -10 -8 -17
-17z"/>
<path d="M774 664 c-7 -3 -10 -14 -7 -25 7 -27 48 -22 48 6 0 19 -19 28 -41
19z"/>
<path d="M2239 633 l-34 -38 38 34 c20 19 37 36 37 38 0 8 -8 0 -41 -34z"/>
<path d="M3129 633 l-34 -38 38 34 c20 19 37 36 37 38 0 8 -8 0 -41 -34z"/>
<path d="M1204 628 l-19 -23 23 19 c21 18 27 26 19 26 -2 0 -12 -10 -23 -22z"/>
<path d="M2099 623 l-24 -28 28 24 c15 14 27 26 27 28 0 8 -8 1 -31 -24z"/>
<path d="M868 605 c-42 -39 -77 -45 -104 -18 -13 13 -16 14 -12 3 2 -8 17 -19
32 -25 32 -11 86 14 111 51 20 31 17 30 -27 -11z"/>
<path d="M3759 623 c-13 -16 -12 -17 4 -4 16 13 21 21 13 21 -2 0 -10 -8 -17
-17z"/>
</g>
</svg>
